<svg version="1.1" id="Layer_1" xmlns="http://www.w3.org/2000/svg" xmlns:xlink="http://www.w3.org/1999/xlink" x="0px" y="0px"
	 width="100%" viewBox="0 0 960 1006" enable-background="new 0 0 960 1006" xml:space="preserve">
<path fill="#FFFFFE" opacity="1.000000" stroke="none" 
	d="
M1.000000,274.000000 
	C1.000000,182.666672 1.000000,91.833359 1.000000,1.000024 
	C320.999969,1.000016 640.999939,1.000016 960.999878,1.000008 
	C960.999939,336.333252 960.999939,671.666504 961.000000,1006.999817 
	C641.000122,1006.999878 321.000244,1006.999878 1.000191,1006.999939 
	C1.000000,762.833313 1.000000,518.666687 1.000000,274.000000 
M695.500000,66.402161 
	C498.355713,66.607063 301.211426,66.841667 104.067101,66.916840 
	C95.474907,66.920113 87.463921,68.621590 79.941612,72.279709 
	C62.104271,80.954094 51.147171,95.237175 48.111519,114.846100 
	C46.872776,122.847809 47.352962,131.142670 47.348030,139.304352 
	C47.252068,298.121277 47.080441,456.938293 47.186775,615.755066 
	C47.244682,702.242493 47.768833,788.729797 48.167244,875.216675 
	C48.190910,880.354553 48.184998,885.704773 49.529648,890.588074 
	C55.642654,912.788574 78.512520,930.322144 101.565201,930.619629 
	C124.892838,930.920654 148.225098,930.943237 171.555359,930.948181 
	C399.199310,930.996704 626.843323,930.964294 854.487061,931.216309 
	C864.460815,931.227356 873.271606,928.898315 881.489380,923.970215 
	C900.143494,912.783386 911.584656,897.167297 911.182312,874.380066 
	C910.985291,863.222229 911.462219,852.054077 911.493896,840.890198 
	C911.672241,778.064453 911.989868,715.238403 911.923767,652.412781 
	C911.736328,474.267059 911.418396,296.121460 911.061096,117.976006 
	C911.013855,94.423141 887.795044,69.823120 864.438599,68.200211 
	C856.298584,67.634605 848.130615,67.258461 839.972595,67.201660 
	C792.148865,66.868698 744.324280,66.655937 695.500000,66.402161 
z"/>
<path fill="#6DB84A" opacity="1.000000" stroke="none" 
	d="
M696.000000,66.402397 
	C744.324280,66.655937 792.148865,66.868698 839.972595,67.201660 
	C848.130615,67.258461 856.298584,67.634605 864.438599,68.200211 
	C887.795044,69.823120 911.013855,94.423141 911.061096,117.976006 
	C911.418396,296.121460 911.736328,474.267059 911.923767,652.412781 
	C911.989868,715.238403 911.672241,778.064453 911.493896,840.890198 
	C911.462219,852.054077 910.985291,863.222229 911.182312,874.380066 
	C911.584656,897.167297 900.143494,912.783386 881.489380,923.970215 
	C873.271606,928.898315 864.460815,931.227356 854.487061,931.216309 
	C626.843323,930.964294 399.199310,930.996704 171.555359,930.948181 
	C148.225098,930.943237 124.892838,930.920654 101.565201,930.619629 
	C78.512520,930.322144 55.642654,912.788574 49.529648,890.588074 
	C48.184998,885.704773 48.190910,880.354553 48.167244,875.216675 
	C47.768833,788.729797 47.244682,702.242493 47.186775,615.755066 
	C47.080441,456.938293 47.252068,298.121277 47.348030,139.304352 
	C47.352962,131.142670 46.872776,122.847809 48.111519,114.846100 
	C51.147171,95.237175 62.104271,80.954094 79.941612,72.279709 
	C87.463921,68.621590 95.474907,66.920113 104.067101,66.916840 
	C301.211426,66.841667 498.355713,66.607063 696.000000,66.402397 
M61.872528,214.500000 
	C61.825459,359.818848 61.717770,505.137726 61.756741,650.456543 
	C61.776405,723.782104 62.040260,797.107605 62.270493,870.432922 
	C62.287651,875.897949 61.830166,881.718872 63.477863,886.758240 
	C68.515144,902.164429 83.238007,916.419678 104.228424,916.170837 
	C140.379349,915.742188 176.543976,916.633423 212.703491,916.729431 
	C269.197540,916.879395 325.692200,916.923584 382.186371,916.843689 
	C540.000427,916.620483 697.814331,916.230591 855.628418,916.117981 
	C880.295959,916.100342 897.428162,895.287598 897.364929,874.603455 
	C897.340454,866.607178 897.724792,858.609985 897.728271,850.613159 
	C897.821716,635.468323 897.926147,420.323547 897.918762,205.178741 
	C897.917786,176.522308 897.875305,147.845306 896.797791,119.217522 
	C896.189880,103.067215 886.977661,91.173698 872.185791,85.041985 
	C865.209900,82.150253 856.994812,81.228531 849.329285,81.176720 
	C770.510071,80.644020 691.688477,80.296600 612.867371,80.243187 
	C503.048157,80.168770 393.228668,80.353500 283.409454,80.499092 
	C226.082794,80.575089 168.756287,80.786797 111.429924,80.998268 
	C106.780777,81.015411 102.108070,81.285721 97.489685,81.816048 
	C80.586388,83.757050 61.761776,100.534470 62.322834,121.525970 
	C63.141560,152.158081 62.113304,182.839569 61.872528,214.500000 
z"/>
<path fill="#FEFFFE" opacity="1.000000" stroke="none" 
	d="
M61.872459,214.000000 
	C62.113304,182.839569 63.141560,152.158081 62.322834,121.525970 
	C61.761776,100.534470 80.586388,83.757050 97.489685,81.816048 
	C102.108070,81.285721 106.780777,81.015411 111.429924,80.998268 
	C168.756287,80.786797 226.082794,80.575089 283.409454,80.499092 
	C393.228668,80.353500 503.048157,80.168770 612.867371,80.243187 
	C691.688477,80.296600 770.510071,80.644020 849.329285,81.176720 
	C856.994812,81.228531 865.209900,82.150253 872.185791,85.041985 
	C886.977661,91.173698 896.189880,103.067215 896.797791,119.217522 
	C897.875305,147.845306 897.917786,176.522308 897.918762,205.178741 
	C897.926147,420.323547 897.821716,635.468323 897.728271,850.613159 
	C897.724792,858.609985 897.340454,866.607178 897.364929,874.603455 
	C897.428162,895.287598 880.295959,916.100342 855.628418,916.117981 
	C697.814331,916.230591 540.000427,916.620483 382.186371,916.843689 
	C325.692200,916.923584 269.197540,916.879395 212.703491,916.729431 
	C176.543976,916.633423 140.379349,915.742188 104.228424,916.170837 
	C83.238007,916.419678 68.515144,902.164429 63.477863,886.758240 
	C61.830166,881.718872 62.287651,875.897949 62.270493,870.432922 
	C62.040260,797.107605 61.776405,723.782104 61.756741,650.456543 
	C61.717770,505.137726 61.825459,359.818848 61.872459,214.000000 
M597.984619,400.499939 
	C597.984619,370.569733 597.984619,340.639496 597.984619,310.527710 
	C605.150513,310.527710 611.373962,310.527710 618.121826,310.527710 
	C618.121826,355.440002 618.121826,400.013092 618.121826,444.754333 
	C642.012146,444.754333 665.372009,444.754333 688.701111,444.754333 
	C688.881287,443.885132 689.066956,443.406799 689.067322,442.928375 
	C689.103149,392.938477 689.136230,342.948578 689.087341,292.958740 
	C689.085999,291.608337 688.568237,289.871735 687.648743,288.971375 
	C681.468506,282.919495 675.551758,276.473663 668.717651,271.242493 
	C657.414612,262.590668 645.613953,254.565308 633.791748,246.620041 
	C604.187866,226.724304 571.235718,215.084641 536.595764,207.681396 
	C533.020996,206.917404 531.770569,208.030457 531.764893,211.645950 
	C531.748657,221.973694 531.346924,232.301346 531.363770,242.628586 
	C531.515747,335.605408 531.719604,428.582092 531.925232,521.558838 
	C531.947449,531.608093 531.996094,531.714294 542.289368,531.843140 
	C561.616516,532.085144 580.945435,532.201172 600.273743,532.346741 
	C605.871582,532.388855 611.469971,532.353210 617.534058,532.353210 
	C617.534058,584.836304 617.534058,636.203491 617.534058,687.882751 
	C615.144958,687.882751 613.159851,687.930969 611.177612,687.875061 
	C596.255310,687.454468 597.571350,690.271912 597.386902,674.193542 
	C596.947327,635.872070 597.005371,597.544983 596.813477,559.220459 
	C596.779419,552.417603 596.671509,552.280945 589.788696,552.225891 
	C575.959717,552.115295 562.129333,552.168762 548.299561,552.157410 
	C543.008118,552.153076 537.716614,552.156738 531.805054,552.156738 
	C531.805054,631.821045 531.805054,710.831238 531.805054,790.316833 
	C534.278564,790.058289 536.607910,790.033081 538.838013,789.549744 
	C595.267395,777.319580 644.424072,751.533752 685.606079,710.834656 
	C688.024475,708.444580 689.194641,706.111145 689.188843,702.614319 
	C689.084351,639.793701 689.154663,576.972717 689.078735,514.152039 
	C689.061462,499.829987 688.563904,485.509003 688.445374,471.186218 
	C688.411987,467.146027 686.799561,465.654114 682.756531,465.668945 
	C661.269592,465.747742 639.782043,465.638458 618.294678,465.601013 
	C611.689209,465.589508 605.083740,465.599182 597.979492,465.599182 
	C597.979492,443.768097 597.979492,422.634033 597.984619,400.499939 
M423.971680,775.459229 
	C424.003784,773.293091 424.062683,771.127014 424.064178,768.960876 
	C424.164825,622.987915 424.298706,477.014954 424.331268,331.041992 
	C424.339722,293.216644 424.045563,255.391144 423.836243,217.566025 
	C423.819122,214.471298 423.383240,211.378922 423.106506,207.831421 
	C420.669312,208.160614 418.821808,208.157791 417.134888,208.676819 
	C399.352844,214.147949 381.572968,219.629974 363.879547,225.377167 
	C362.528625,225.815964 361.137573,228.220703 360.970520,229.836243 
	C360.389252,235.458267 360.123413,241.134918 360.117981,246.791183 
	C359.978424,391.431213 359.887207,536.071289 359.786774,680.711365 
	C359.785736,682.210938 360.064484,683.793213 359.669403,685.182312 
	C359.385559,686.180298 358.224091,687.627380 357.404419,687.661011 
	C351.993774,687.882568 346.569641,687.775452 339.694885,687.775452 
	C339.694885,537.832214 339.694885,388.485260 339.694885,239.138306 
	C339.093750,238.923920 338.492645,238.709534 337.891510,238.495163 
	C335.460327,239.778748 332.979675,240.977325 330.605774,242.359299 
	C310.355255,254.147995 292.203491,268.678009 275.090698,284.612000 
	C272.039581,287.452942 270.768524,290.266968 270.772034,294.500061 
	C270.884674,430.642120 270.876068,566.784363 270.767181,702.926453 
	C270.763977,706.946045 271.965454,709.747314 274.795166,712.504272 
	C308.716400,745.554810 348.383179,768.916687 393.550781,782.921936 
	C403.020905,785.858398 412.769440,787.896973 423.201691,790.556274 
	C423.480377,785.300171 423.715240,780.871094 423.971680,775.459229 
M470.500214,795.230530 
	C482.148895,794.869873 493.796143,794.439819 505.447235,794.193848 
	C508.655518,794.126038 510.367645,793.268188 510.326569,789.657898 
	C510.271790,784.837891 510.838867,780.012756 510.840088,775.189758 
	C510.887878,586.418396 510.902191,397.646973 510.909363,208.875595 
	C510.909424,207.415039 510.752136,205.954468 510.661957,204.383377 
	C509.434875,204.113815 508.486389,203.741760 507.529785,203.719620 
	C490.585815,203.327393 473.629395,202.441742 456.700104,202.804550 
	C445.133179,203.052444 445.094727,203.836823 445.075653,215.435699 
	C444.908630,317.065430 444.719666,418.695160 444.627991,520.324951 
	C444.577759,575.973389 444.659729,631.622009 444.764557,687.270447 
	C444.827026,720.425781 445.030182,753.580933 445.216095,786.735962 
	C445.252838,793.289062 445.933228,794.175232 452.520264,794.726501 
	C458.154724,795.197998 463.838501,795.079895 470.500214,795.230530 
z"/>
<path fill="#6BB647" opacity="1.000000" stroke="none" 
	d="
M597.982056,400.999939 
	C597.979492,422.634033 597.979492,443.768097 597.979492,465.599182 
	C605.083740,465.599182 611.689209,465.589508 618.294678,465.601013 
	C639.782043,465.638458 661.269592,465.747742 682.756531,465.668945 
	C686.799561,465.654114 688.411987,467.146027 688.445374,471.186218 
	C688.563904,485.509003 689.061462,499.829987 689.078735,514.152039 
	C689.154663,576.972717 689.084351,639.793701 689.188843,702.614319 
	C689.194641,706.111145 688.024475,708.444580 685.606079,710.834656 
	C644.424072,751.533752 595.267395,777.319580 538.838013,789.549744 
	C536.607910,790.033081 534.278564,790.058289 531.805054,790.316833 
	C531.805054,710.831238 531.805054,631.821045 531.805054,552.156738 
	C537.716614,552.156738 543.008118,552.153076 548.299561,552.157410 
	C562.129333,552.168762 575.959717,552.115295 589.788696,552.225891 
	C596.671509,552.280945 596.779419,552.417603 596.813477,559.220459 
	C597.005371,597.544983 596.947327,635.872070 597.386902,674.193542 
	C597.571350,690.271912 596.255310,687.454468 611.177612,687.875061 
	C613.159851,687.930969 615.144958,687.882751 617.534058,687.882751 
	C617.534058,636.203491 617.534058,584.836304 617.534058,532.353210 
	C611.469971,532.353210 605.871582,532.388855 600.273743,532.346741 
	C580.945435,532.201172 561.616516,532.085144 542.289368,531.843140 
	C531.996094,531.714294 531.947449,531.608093 531.925232,521.558838 
	C531.719604,428.582092 531.515747,335.605408 531.363770,242.628586 
	C531.346924,232.301346 531.748657,221.973694 531.764893,211.645950 
	C531.770569,208.030457 533.020996,206.917404 536.595764,207.681396 
	C571.235718,215.084641 604.187866,226.724304 633.791748,246.620041 
	C645.613953,254.565308 657.414612,262.590668 668.717651,271.242493 
	C675.551758,276.473663 681.468506,282.919495 687.648743,288.971375 
	C688.568237,289.871735 689.085999,291.608337 689.087341,292.958740 
	C689.136230,342.948578 689.103149,392.938477 689.067322,442.928375 
	C689.066956,443.406799 688.881287,443.885132 688.701111,444.754333 
	C665.372009,444.754333 642.012146,444.754333 618.121826,444.754333 
	C618.121826,400.013092 618.121826,355.440002 618.121826,310.527710 
	C611.373962,310.527710 605.150513,310.527710 597.984619,310.527710 
	C597.984619,340.639496 597.984619,370.569733 597.982056,400.999939 
z"/>
<path fill="#6AB646" opacity="1.000000" stroke="none" 
	d="
M423.960876,775.950623 
	C423.715240,780.871094 423.480377,785.300171 423.201691,790.556274 
	C412.769440,787.896973 403.020905,785.858398 393.550781,782.921936 
	C348.383179,768.916687 308.716400,745.554810 274.795166,712.504272 
	C271.965454,709.747314 270.763977,706.946045 270.767181,702.926453 
	C270.876068,566.784363 270.884674,430.642120 270.772034,294.500061 
	C270.768524,290.266968 272.039581,287.452942 275.090698,284.612000 
	C292.203491,268.678009 310.355255,254.147995 330.605774,242.359299 
	C332.979675,240.977325 335.460327,239.778748 337.891510,238.495163 
	C338.492645,238.709534 339.093750,238.923920 339.694885,239.138306 
	C339.694885,388.485260 339.694885,537.832214 339.694885,687.775452 
	C346.569641,687.775452 351.993774,687.882568 357.404419,687.661011 
	C358.224091,687.627380 359.385559,686.180298 359.669403,685.182312 
	C360.064484,683.793213 359.785736,682.210938 359.786774,680.711365 
	C359.887207,536.071289 359.978424,391.431213 360.117981,246.791183 
	C360.123413,241.134918 360.389252,235.458267 360.970520,229.836243 
	C361.137573,228.220703 362.528625,225.815964 363.879547,225.377167 
	C381.572968,219.629974 399.352844,214.147949 417.134888,208.676819 
	C418.821808,208.157791 420.669312,208.160614 423.106506,207.831421 
	C423.383240,211.378922 423.819122,214.471298 423.836243,217.566025 
	C424.045563,255.391144 424.339722,293.216644 424.331268,331.041992 
	C424.298706,477.014954 424.164825,622.987915 424.064178,768.960876 
	C424.062683,771.127014 424.003784,773.293091 423.960876,775.950623 
z"/>
<path fill="#6BB647" opacity="1.000000" stroke="none" 
	d="
M470.000366,795.226562 
	C463.838501,795.079895 458.154724,795.197998 452.520264,794.726501 
	C445.933228,794.175232 445.252838,793.289062 445.216095,786.735962 
	C445.030182,753.580933 444.827026,720.425781 444.764557,687.270447 
	C444.659729,631.622009 444.577759,575.973389 444.627991,520.324951 
	C444.719666,418.695160 444.908630,317.065430 445.075653,215.435699 
	C445.094727,203.836823 445.133179,203.052444 456.700104,202.804550 
	C473.629395,202.441742 490.585815,203.327393 507.529785,203.719620 
	C508.486389,203.741760 509.434875,204.113815 510.661957,204.383377 
	C510.752136,205.954468 510.909424,207.415039 510.909363,208.875595 
	C510.902191,397.646973 510.887878,586.418396 510.840088,775.189758 
	C510.838867,780.012756 510.271790,784.837891 510.326569,789.657898 
	C510.367645,793.268188 508.655518,794.126038 505.447235,794.193848 
	C493.796143,794.439819 482.148895,794.869873 470.000366,795.226562 
z"/>
</svg>